<svg preserveAspectRatio="none" width="100%" height="100%" overflow="visible" style="display: block;" viewBox="0 0 134 43" fill="none" xmlns="http://www.w3.org/2000/svg">
<g id="Rectangle 252" filter="url(#filter0_d_579_165)">
<path d="M4 17.5C4 8.3873 11.3873 1 20.5 1H111.5C120.613 1 128 8.3873 128 17.5C128 26.6127 120.613 34 111.5 34H20.5C11.3873 34 4 26.6127 4 17.5Z" fill="var(--fill-0, #003B8E)"/>
<path d="M111.5 0.5C120.889 0.5 128.5 8.11116 128.5 17.5C128.5 26.8888 120.889 34.5 111.5 34.5H20.5C11.1112 34.5 3.5 26.8888 3.5 17.5C3.5 8.11116 11.1112 0.5 20.5 0.5H111.5Z" stroke="var(--stroke-0, #003B8E)"/>
</g>
<defs>
<filter id="filter0_d_579_165" x="0" y="0" width="134" height="43" filterUnits="userSpaceOnUse" color-interpolation-filters="sRGB">
<feFlood flood-opacity="0" result="BackgroundImageFix"/>
<feColorMatrix in="SourceAlpha" type="matrix" values="0 0 0 0 0 0 0 0 0 0 0 0 0 0 0 0 0 0 127 0" result="hardAlpha"/>
<feOffset dx="1" dy="4"/>
<feGaussianBlur stdDeviation="2"/>
<feComposite in2="hardAlpha" operator="out"/>
<feColorMatrix type="matrix" values="0 0 0 0 0 0 0 0 0 0 0 0 0 0 0 0 0 0 0.12 0"/>
<feBlend mode="normal" in2="BackgroundImageFix" result="effect1_dropShadow_579_165"/>
<feBlend mode="normal" in="SourceGraphic" in2="effect1_dropShadow_579_165" result="shape"/>
</filter>
</defs>
</svg>
