<svg preserveAspectRatio="none" width="100%" height="100%" overflow="visible" style="display: block;" viewBox="0 0 134.251 43.1336" fill="none" xmlns="http://www.w3.org/2000/svg">
<g id="Rectangle 29" filter="url(#filter0_d_579_173)">
<path d="M4 17.5668C4 8.41722 11.4172 1 20.5668 1H111.684C120.834 1 128.251 8.41722 128.251 17.5668C128.251 26.7164 120.834 34.1336 111.684 34.1336H20.5668C11.4172 34.1336 4 26.7164 4 17.5668Z" fill="var(--fill-0, #003B8E)"/>
<path d="M111.685 0.5C121.11 0.500121 128.751 8.14092 128.751 17.5664C128.751 26.9921 121.11 34.6337 111.685 34.6338H20.5664C11.1408 34.6336 3.5 26.992 3.5 17.5664C3.50023 8.14099 11.141 0.500227 20.5664 0.5H111.685Z" stroke="var(--stroke-0, #003B8E)"/>
</g>
<defs>
<filter id="filter0_d_579_173" x="0" y="0" width="134.251" height="43.1336" filterUnits="userSpaceOnUse" color-interpolation-filters="sRGB">
<feFlood flood-opacity="0" result="BackgroundImageFix"/>
<feColorMatrix in="SourceAlpha" type="matrix" values="0 0 0 0 0 0 0 0 0 0 0 0 0 0 0 0 0 0 127 0" result="hardAlpha"/>
<feOffset dx="1" dy="4"/>
<feGaussianBlur stdDeviation="2"/>
<feComposite in2="hardAlpha" operator="out"/>
<feColorMatrix type="matrix" values="0 0 0 0 0 0 0 0 0 0 0 0 0 0 0 0 0 0 0.12 0"/>
<feBlend mode="normal" in2="BackgroundImageFix" result="effect1_dropShadow_579_173"/>
<feBlend mode="normal" in="SourceGraphic" in2="effect1_dropShadow_579_173" result="shape"/>
</filter>
</defs>
</svg>
