<svg preserveAspectRatio="none" width="100%" height="100%" overflow="visible" style="display: block;" viewBox="0 0 52.1818 31.0437" fill="none" xmlns="http://www.w3.org/2000/svg">
<g id="Group">
<path id="Vector" d="M5.58345 31.0437C4.10195 31.0422 2.68179 30.5955 1.6349 29.8018C0.588016 29.0081 -1.3169e-06 27.9322 0 26.8105L0 21.0815C0.000495562 20.77 0.137143 20.4673 0.388632 20.2207C0.64012 19.9742 0.99231 19.7975 1.39027 19.7184C2.61608 19.4757 3.70104 18.9321 4.47538 18.1728C5.24973 17.4135 5.66976 16.4812 5.66976 15.5219C5.66976 14.5625 5.24973 13.6302 4.47538 12.8709C3.70104 12.1116 2.61608 11.568 1.39027 11.3253C0.99231 11.2462 0.64012 11.0696 0.388632 10.823C0.137143 10.5764 0.000495562 10.2737 0 9.96221V4.23323C0 1.89649 2.49727 0 5.58345 0H46.5984C49.6845 0 52.1818 1.89649 52.1818 4.23323V9.97349C52.1822 10.2836 52.0477 10.5851 51.7991 10.8315C51.5505 11.0778 51.2016 11.2554 50.8065 11.3366C49.5935 11.5867 48.5229 12.1319 47.7596 12.8883C46.9963 13.6446 46.5828 14.57 46.5828 15.5219C46.5828 16.4737 46.9963 17.3991 47.7596 18.1555C48.5229 18.9118 49.5935 19.457 50.8065 19.7071C51.2016 19.7883 51.5505 19.9659 51.7991 20.2123C52.0477 20.4586 52.1822 20.7602 52.1818 21.0702V26.8105C52.1818 29.1472 49.6845 31.0437 46.5984 31.0437H5.58345Z" fill="var(--fill-0, #8FBFFA)"/>
<path id="Vector_2" fill-rule="evenodd" clip-rule="evenodd" d="M37.1294 9.71344L18.493 23.8242C18.0519 24.1388 17.4662 24.3108 16.8603 24.3038C16.2544 24.2967 15.676 24.1112 15.2478 23.7866C14.8196 23.462 14.5752 23.0239 14.5666 22.5651C14.5581 22.1063 14.7859 21.6631 15.2018 21.3294L33.8382 7.21866C34.0521 7.04703 34.3094 6.90965 34.5947 6.81466C34.8801 6.71968 35.1877 6.66901 35.4993 6.66567C35.811 6.66233 36.1204 6.70638 36.4091 6.79521C36.6979 6.88404 36.9602 7.01584 37.1805 7.18282C37.4008 7.34979 37.5745 7.54854 37.6915 7.76729C37.8085 7.98604 37.8664 8.22034 37.8616 8.45631C37.8568 8.69229 37.7896 8.92514 37.6638 9.14108C37.538 9.35701 37.3563 9.55164 37.1294 9.71344ZM18.7129 7.05497C17.7244 7.05497 16.7763 7.3523 16.0773 7.88156C15.3783 8.41082 14.9856 9.12864 14.9856 9.87713C14.9856 10.6256 15.3783 11.3434 16.0773 11.8727C16.7763 12.4019 17.7244 12.6993 18.7129 12.6993C19.7015 12.6993 20.6495 12.4019 21.3485 11.8727C22.0475 11.3434 22.4402 10.6256 22.4402 9.87713C22.4402 9.12864 22.0475 8.41082 21.3485 7.88156C20.6495 7.3523 19.7015 7.05497 18.7129 7.05497ZM33.622 18.3436C32.6335 18.3436 31.6854 18.6409 30.9864 19.1702C30.2874 19.6994 29.8947 20.4173 29.8947 21.1657C29.8947 21.9142 30.2874 22.6321 30.9864 23.1613C31.6854 23.6906 32.6335 23.9879 33.622 23.9879C34.6105 23.9879 35.5586 23.6906 36.2576 23.1613C36.9566 22.6321 37.3493 21.9142 37.3493 21.1657C37.3493 20.4173 36.9566 19.6994 36.2576 19.1702C35.5586 18.6409 34.6105 18.3436 33.622 18.3436Z" fill="var(--fill-0, #2859C5)"/>
</g>
</svg>
