<svg preserveAspectRatio="none" width="100%" height="100%" overflow="visible" style="display: block;" viewBox="0 0 60 42" fill="none" xmlns="http://www.w3.org/2000/svg">
<path id="Vector" d="M9 42C6.5 42 4.375 41.125 2.625 39.375C0.875 37.625 0 35.5 0 33V9C0 6.5 0.875 4.375 2.625 2.625C4.375 0.875 6.5 0 9 0H19.5C20.75 0 21.812 0.438001 22.686 1.314C23.562 2.188 24 3.25 24 4.5C24 5.75 23.562 6.812 22.686 7.686C21.812 8.562 20.75 9 19.5 9H9V15H18C20.5 15 22.625 15.875 24.375 17.625C26.125 19.375 27 21.5 27 24V33C27 35.5 26.125 37.625 24.375 39.375C22.625 41.125 20.5 42 18 42H9ZM9 24V33H18V24H9ZM39 33H51V9H39V33ZM39 42C36.5 42 34.375 41.125 32.625 39.375C30.875 37.625 30 35.5 30 33V9C30 6.5 30.875 4.375 32.625 2.625C34.375 0.875 36.5 0 39 0H51C53.5 0 55.625 0.875 57.375 2.625C59.125 4.375 60 6.5 60 9V33C60 35.5 59.125 37.625 57.375 39.375C55.625 41.125 53.5 42 51 42H39Z" fill="var(--fill-0, white)" fill-opacity="0.9"/>
</svg>
